Coordinates
version=1
nRows=21
nColumns=33
inDegrees=yes

Units are S.I. units (second, meters, Newtons, ...)
Angles are in degrees.

endheader
time	ground_thorax_rot_x	ground_thorax_rot_y	ground_thorax_rot_z	ground_thorax_tx	ground_thorax_ty	ground_thorax_tz	clav_prot_r	clav_elev_r	scapula_abduction_r	scapula_elevation_r	scapula_upward_rot_r	scapula_winging_r	shoulder_elv_r	plane_of_elev_r	axial_rot_r	elbow_flexion_r	pro_sup_r	wrist_flex_r	wrist_dev_r	clav_prot_l	clav_elev_l	scapula_abduction_l	scapula_elevation_l	scapula_upward_rot_l	scapula_winging_l	shoulder_elv_l	plane_of_elev_l	axial_rot_l	elbow_flexion_l	pro_sup_l	wrist_flex_l	wrist_dev_l
      0.79000000	      1.00597282	      3.83160694	     13.90505743	     -0.12240689	      1.03164932	      0.02957754	      5.18506569	     10.22099263	     21.15554916	      5.73936591	     24.19622238	    -11.51778124	     -1.39460448	    -68.56404340	     58.13809224	     40.11424586	    -39.07105597	     70.00000021	    -24.99999983	     11.79785874	     -4.39817329	    -17.27774355	    -20.55302140	    -41.75978268	      0.03680741	     59.58906850	    -35.78738436	     -3.30113058	     57.53626842	     23.94320304	     -0.39707598	    -24.99999983
      0.80000000	      0.84827190	      4.35371407	     13.90483468	     -0.12263126	      1.03156169	      0.02990259	      4.54584388	      9.41366192	     19.13130363	      5.48837253	     22.93689406	    -10.69825351	      3.69561498	    -68.66122821	     60.18370119	     42.35289371	    -36.26751318	     70.00000021	    -24.99999983	     12.65076440	     -5.11798470	    -19.55411625	    -20.97390938	    -44.31960048	      0.71380543	     60.58723458	    -34.49070268	     -2.65292925	     57.84514667	     24.90988539	     -4.37761653	    -24.99999983
      0.81000000	      0.80377793	      4.38909233	     13.85906635	     -0.12241448	      1.03104344	      0.02993179	      4.50234758	      9.53972014	     19.09765496	      5.56105408	     23.04393878	    -10.71008231	      3.88113958	    -68.64825586	     60.13955973	     42.78726646	    -36.27076996	     70.00000021	    -24.99999983	     12.72349857	     -5.01723824	    -19.65611830	    -21.02828457	    -44.23792997	      0.76746286	     60.62141751	    -34.50340134	     -2.76001356	     58.07702414	     24.87325966	     -4.37752681	    -24.99999983
      0.82000000	      0.79015237	      4.40150258	     13.92189568	     -0.12224667	      1.03107821	      0.02979796	      4.48971082	      9.54106835	     19.11624068	      5.54677270	     23.09409460	    -10.72177384	      3.92337790	    -68.60672380	     60.11059957	     42.80419243	    -36.27419332	     70.00000021	    -24.99999983	     12.72808914	     -5.01550357	    -19.65995816	    -21.02435517	    -44.22564174	      0.77025345	     60.63351771	    -34.49548565	     -2.75472911	     58.09226591	     24.87048263	     -4.37937389	    -24.99999983
      0.83000000	      0.70197471	      4.38594363	     13.71333343	     -0.12182158	      1.03020748	      0.02989851	      4.31227284	      9.77114857	     18.89777016	      5.67080557	     23.32295664	    -10.69660897	      4.39655379	    -68.65191824	     59.73740000	     43.86914842	    -36.13912332	     70.00000021	    -24.99999983	     12.75790792	     -4.91464850	    -19.71081352	    -21.11419017	    -44.21799068	      0.78765749	     60.77614866	    -34.59010851	     -2.51237428	     58.78652066	     24.75886098	     -4.46299832	    -24.99999983
      0.84000000	      0.70431031	      4.64461727	     13.76961752	     -0.12216301	      1.03029500	      0.03011786	      4.32963862	      8.94273711	     18.30528192	      5.32147042	     22.25612274	    -10.33163874	      7.76909794	    -69.58160638	     59.25949706	     46.12701871	    -33.32344378	     70.00000021	    -24.99999983	     13.20196454	     -5.38317397	    -20.73933271	    -20.99260735	    -45.00000000	      1.18097967	     61.08534962	    -34.40945282	     -2.36250073	     59.26285524	     24.35364973	     -4.50265823	    -24.99999983
      0.85000000	      0.61059141	      4.57635852	     13.82571726	     -0.12175427	      1.03007641	      0.03027284	      4.15407287	      9.16147460	     18.08451664	      5.43874489	     22.47608116	    -10.30485630	      7.92882174	    -69.47697950	     59.18039828	     46.73296820	    -33.22435053	     70.00000021	    -24.99999983	     13.14803768	     -5.25575066	    -20.64532811	    -21.11368771	    -44.99655199	      1.12584820	     61.12143573	    -34.44520078	     -2.01052146	     59.52366092	     24.28419964	     -4.56132549	    -24.99999983
      0.86000000	      0.64359231	      4.63843836	     13.66841123	     -0.12143091	      1.02973209	      0.03019387	      3.99964094	      9.38197985	     17.91087754	      5.55393539	     22.70605988	    -10.29574283	      8.36896193	    -69.47420600	     58.89841368	     47.41907002	    -33.08280404	     70.00000021	    -24.99999983	     13.13366914	     -5.17391249	    -20.60764807	    -21.17224402	    -44.95279106	      1.10940833	     61.19386503	    -34.28323813	     -1.78762352	     60.11532765	     24.19921568	     -4.63933770	    -24.99999983
      0.87000000	      0.80443462	      4.91006120	     13.70625211	     -0.12136873	      1.02967666	      0.03065456	      3.86105197	      9.32758499	     17.34712846	      5.63988250	     22.32300382	    -10.07815683	     10.29223287	    -70.07155177	     58.25518912	     49.35068141	    -31.63098380	     70.00000021	    -24.99999983	     13.32277035	     -5.46717772	    -20.94801559	    -20.90637833	    -45.00000000	      1.28681015	     61.32873803	    -34.17750889	     -1.81359242	     60.23162127	     24.06736920	     -4.72909326	    -24.99999983
      0.88000000	      0.65260457	      4.82881631	     13.62093272	     -0.12117275	      1.02952333	      0.03053135	      3.73717620	      9.41476934	     17.28161858	      5.63726386	     22.56248125	    -10.09250681	     10.56791795	    -69.87453425	     58.13494538	     49.91759560	    -31.41069149	     70.00000021	    -24.99999983	     13.30511078	     -5.34769091	    -20.91899436	    -21.01922218	    -45.00000000	      1.26246906	     61.44898138	    -34.20193885	     -1.39725939	     60.99056190	     23.95412574	     -4.85332171	    -24.99999983
      0.89000000	      0.73780821	      4.99792545	     13.62958318	     -0.12093983	      1.02958882	      0.03076209	      3.57882313	      9.32606932	     16.79444015	      5.65319713	     22.30281449	     -9.91106706	     12.22972341	    -70.30970437	     57.51181965	     51.59885703	    -30.07351013	     70.00000021	    -24.99999983	     13.39793723	     -5.59712977	    -21.07618657	    -20.77995175	    -45.00000000	      1.35637289	     61.51745650	    -34.22012474	     -1.09255835	     61.44879827	     23.78052973	     -5.03623518	    -24.99999983
      0.90000000	      0.61626287	      5.01332404	     13.58130126	     -0.12093319	      1.02949775	      0.03065227	      3.51200705	      9.42808330	     16.81202222	      5.66966026	     22.51843744	     -9.94908540	     12.52036104	    -70.14490967	     57.39338399	     52.18556790	    -29.85245414	     70.00000021	    -24.99999983	     13.42152817	     -5.53165987	    -21.11284830	    -20.83072866	    -44.97957977	      1.37519378	     61.75565269	    -34.13176483	     -0.75811640	     62.14023629	     23.67819656	     -5.14860470	    -24.99999983
      0.91000000	      0.64957278	      5.21999288	     13.61932087	     -0.12109191	      1.02970414	      0.03072323	      3.49200002	      9.04717912	     16.38840096	      5.55246545	     21.89774995	     -9.72083976	     14.87584000	    -70.55073562	     56.91710600	     53.88395457	    -27.60644299	     70.00000021	    -24.99999983	     13.66328690	     -5.88482877	    -21.53340348	    -20.49546887	    -45.00000000	      1.59848223	     61.88087562	    -34.24845875	     -0.55139266	     62.83902004	     23.36448540	     -5.36927192	    -24.99999983
      0.92000000	      0.53320250	      5.17841701	     13.68814665	     -0.12088822	      1.02967966	      0.03077354	      3.31597393	      9.23193267	     16.25183576	      5.60979539	     22.21475876	     -9.73299410	     15.11053133	    -70.38745834	     56.70395808	     54.65694945	    -27.52337232	     70.00000021	    -24.99999983	     13.61305159	     -5.81938401	    -21.44666983	    -20.55870179	    -45.00000000	      1.55249061	     62.09799093	    -34.16835768	     -0.03452008	     63.41511183	     23.25074563	     -5.47512084	    -24.99999983
      0.93000000	      0.53973144	      5.24204842	     13.60760052	     -0.12069097	      1.02958368	      0.03067730	      3.15274921	      9.41489515	     16.12750792	      5.67040752	     22.51100064	     -9.74777655	     15.58638785	    -70.31037069	     56.26425406	     55.52862224	    -27.42895448	     70.00000021	    -24.99999983	     13.59015590	     -5.83164232	    -21.39971342	    -20.53883760	    -44.97863449	      1.53500674	     62.34171846	    -33.93424424	      0.34544644	     64.17848006	     23.12071324	     -5.56857980	    -24.99999983
      0.94000000	      0.57416555	      5.46912195	     13.67822333	     -0.12098065	      1.02988494	      0.03084853	      3.16603912	      9.11260394	     15.81591199	      5.58929507	     21.98460031	     -9.57027862	     17.37324130	    -70.53812996	     55.57192162	     57.06944602	    -25.97586976	     70.00000021	    -24.99999983	     13.81224625	     -6.26538018	    -21.78051630	    -20.13046943	    -45.00000000	      1.74607042	     62.72589659	    -33.98972581	      0.45256771	     64.76183632	     22.64702748	     -5.42120801	    -24.99999983
      0.95000000	      0.47697756	      5.44844726	     13.72244405	     -0.12079293	      1.02977085	      0.03081070	      3.00031875	      9.28609135	     15.74280790	      5.61964783	     22.34636290	     -9.60520046	     17.67256346	    -70.33095461	     55.28501089	     57.89741720	    -25.89793744	     70.00000021	    -24.99999983	     13.78119132	     -6.22414977	    -21.72081273	    -20.16111570	    -44.97712589	      1.71572745	     62.97825320	    -33.81973317	      0.93352618	     65.42390335	     22.49960020	     -5.48366210	    -24.99999983
      0.96000000	      0.47655882	      5.50266276	     13.68711792	     -0.12071749	      1.02970550	      0.03074338	      2.87085815	      9.41536597	     15.69855412	      5.63376202	     22.64130782	     -9.64087709	     18.13961113	    -70.16570071	     54.83178484	     58.72216962	    -25.83230160	     70.00000021	    -24.99999983	     13.79024071	     -6.26487460	    -21.71089831	    -20.09070123	    -44.90548411	      1.72603213	     63.27428796	    -33.53604990	      1.26961418	     66.08813251	     22.34012561	     -5.49484349	    -24.99999983
      0.97000000	      0.53849477	      5.62980215	     13.76054607	     -0.12062756	      1.02980396	      0.03077407	      2.76553461	      9.46616636	     15.53976566	      5.65595618	     22.71067042	     -9.60844669	     18.87955994	    -70.14981045	     54.14418836	     59.77695587	    -25.65956336	     70.00000021	    -24.99999983	     13.80527893	     -6.51003735	    -21.75837404	    -19.90381891	    -45.00000000	      1.74486032	     63.69297148	    -33.25172033	      1.64722342	     66.62234145	     22.05416677	     -5.34078012	    -24.99999983
      0.98000000	      0.48627218	      5.79049786	     13.84915051	     -0.12107353	      1.03008546	      0.03083704	      2.94005026	      9.06978842	     15.48363429	      5.52375537	     22.08770709	     -9.47900780	     20.34463185	    -69.96244172	     53.49466747	     60.95211394	    -24.74631233	     70.00000021	    -24.99999983	     14.05749168	     -6.89154977	    -22.18232252	    -19.53545236	    -45.00000000	      1.97030291	     64.16429976	    -33.20337469	      1.77178818	     67.12480571	     20.96792309	     -4.06858638	    -24.99999983
      0.99000000	      0.39357416	      5.74862377	     13.92114834	     -0.12109499	      1.02993586	      0.03069290	      2.84044870	      9.17080459	     15.59627965	      5.47677624	     22.48749331	     -9.57369850	     20.59877857	    -69.59922552	     53.27804818	     61.53828796	    -24.74368188	     70.00000021	    -24.99999983	     14.09105792	     -6.85158646	    -22.20527207	    -19.51932838	    -44.88440180	      2.00229787	     64.42839021	    -32.94245256	      2.05942101	     67.68880609	     20.81335462	     -4.01078302	    -24.99999983
